<svg width="690" height="283" viewBox="0 0 690 283" fill="none" xmlns="http://www.w3.org/2000/svg">
<path d="M37.3454 2.37606L75.7778 134.417H77.253L115.763 2.37606H153.031L98.2162 176.168H54.8924L0 2.37606H37.3454Z" fill="url(#paint0_linear_17_1293)"/>
<path d="M210.161 2.37606V176.168H176.542V2.37606H210.161Z" fill="url(#paint1_linear_17_1293)"/>
<path d="M298.561 176.168H242.193V2.37606H299.027C315.021 2.37606 328.789 5.85529 340.332 12.8137C351.874 19.7156 360.751 29.6441 366.963 42.5993C373.226 55.5545 376.357 71.0554 376.357 89.1021C376.357 107.205 373.226 122.763 366.963 135.775C360.751 148.786 351.823 158.772 340.177 165.73C328.582 172.688 314.71 176.168 298.561 176.168ZM275.812 144.685H297.163C307.101 144.685 315.461 142.761 322.241 138.914C329.074 135.011 334.198 128.986 337.614 120.839C341.082 112.636 342.816 102.057 342.816 89.1021C342.816 76.2601 341.082 65.7659 337.614 57.6194C334.198 49.4729 329.1 43.4762 322.319 39.6292C315.538 35.7823 307.179 33.8588 297.241 33.8588H275.812V144.685Z" fill="url(#paint2_linear_17_1293)"/>
<path d="M405.634 176.168V2.37606H512.778V32.6708H439.252V74.0821H507.266V104.377H439.252V145.873H513.089V176.168H405.634Z" fill="url(#paint3_linear_17_1293)"/>
<path d="M690 89.2719C690 108.224 686.713 124.347 680.14 137.642C673.618 150.936 664.715 161.091 653.431 168.106C642.199 175.064 629.569 178.544 615.542 178.544C601.411 178.544 588.73 175.036 577.498 168.021C566.266 161.006 557.389 150.851 550.867 137.557C544.345 124.262 541.084 108.167 541.084 89.2719C541.084 70.32 544.345 54.1967 550.867 40.9021C557.389 27.6075 566.266 17.481 577.498 10.5225C588.73 3.50752 601.411 0 615.542 0C629.569 0 642.199 3.50752 653.431 10.5225C664.715 17.481 673.618 27.6075 680.14 40.9021C686.713 54.1967 690 70.32 690 89.2719ZM655.916 89.2719C655.916 76.9956 654.233 66.6427 650.869 58.2134C647.556 49.7841 642.872 43.3913 636.816 39.0352C630.76 34.6791 623.669 32.5011 615.542 32.5011C607.416 32.5011 600.324 34.6791 594.268 39.0352C588.212 43.3913 583.502 49.7841 580.138 58.2134C576.825 66.6427 575.169 76.9956 575.169 89.2719C575.169 101.548 576.825 111.901 580.138 120.33C583.502 128.76 588.212 135.152 594.268 139.508C600.324 143.865 607.416 146.043 615.542 146.043C623.669 146.043 630.76 143.865 636.816 139.508C642.872 135.152 647.556 128.76 650.869 120.33C654.233 111.901 655.916 101.548 655.916 89.2719Z" fill="url(#paint4_linear_17_1293)"/>
<path d="M32.915 282.038V211.641H58.3263C63.1905 211.641 67.3418 212.592 70.7803 214.494C74.2398 216.373 76.871 219.043 78.6742 222.503C80.4982 225.94 81.4103 229.985 81.4103 234.637C81.4103 239.311 80.4878 243.333 78.6427 246.702C76.7977 250.047 74.1245 252.614 70.6231 254.401C67.1426 256.189 62.9284 257.082 57.9803 257.082H40.9661V245.121H55.7788C58.3787 245.121 60.5382 244.731 62.2575 243.952C63.9767 243.173 65.2557 242.004 66.0943 240.446C66.9539 238.888 67.3837 236.951 67.3837 234.637C67.3837 232.299 66.9539 230.329 66.0943 228.724C65.2557 227.12 63.9662 225.906 62.226 225.081C60.5068 224.233 58.3367 223.809 55.7159 223.809H46.5327V282.038H32.915ZM67.6982 250.002L83.7061 282.038H68.6732L53.0113 250.002H67.6982Z" fill="url(#paint5_linear_17_1293)"/>
<path d="M92.8051 282.038V211.641H136.206V223.912H106.423V240.686H133.973V252.958H106.423V269.766H136.331V282.038H92.8051Z" fill="url(#paint6_linear_17_1293)"/>
<path d="M205.633 236.287H191.858C191.606 234.339 191.093 232.609 190.317 231.096C189.541 229.561 188.545 228.255 187.329 227.178C186.113 226.101 184.708 225.276 183.115 224.703C181.542 224.13 179.834 223.843 177.989 223.843C174.655 223.843 171.751 224.749 169.277 226.559C166.803 228.346 164.885 230.959 163.522 234.396C162.159 237.811 161.478 241.958 161.478 246.839C161.478 251.858 162.159 256.074 163.522 259.489C164.906 262.903 166.834 265.481 169.308 267.223C171.783 268.964 174.644 269.835 177.894 269.835C179.718 269.835 181.406 269.571 182.958 269.044C184.53 268.517 185.924 267.75 187.14 266.741C188.356 265.71 189.363 264.461 190.16 262.995C190.977 261.528 191.543 259.855 191.858 257.976L205.633 258.045C205.276 261.276 204.385 264.393 202.96 267.395C201.555 270.374 199.657 273.043 197.267 275.403C194.898 277.741 192.068 279.597 188.776 280.972C185.505 282.324 181.804 283 177.674 283C171.929 283 166.793 281.579 162.264 278.738C157.756 275.896 154.192 271.783 151.571 266.398C148.971 261.013 147.671 254.493 147.671 246.839C147.671 239.163 148.992 232.632 151.634 227.246C154.276 221.861 157.861 217.759 162.39 214.941C166.918 212.099 172.013 210.678 177.674 210.678C181.406 210.678 184.866 211.251 188.052 212.397C191.26 213.543 194.101 215.216 196.575 217.416C199.049 219.593 201.062 222.262 202.614 225.425C204.186 228.587 205.192 232.208 205.633 236.287Z" fill="url(#paint7_linear_17_1293)"/>
<path d="M276.357 246.839C276.357 254.516 275.026 261.047 272.363 266.432C269.721 271.817 266.115 275.931 261.545 278.772C256.995 281.591 251.879 283 246.197 283C240.473 283 235.337 281.579 230.787 278.738C226.237 275.896 222.641 271.783 220 266.398C217.358 261.013 216.037 254.493 216.037 246.839C216.037 239.163 217.358 232.632 220 227.246C222.641 221.861 226.237 217.759 230.787 214.941C235.337 212.099 240.473 210.678 246.197 210.678C251.879 210.678 256.995 212.099 261.545 214.941C266.115 217.759 269.721 221.861 272.363 227.246C275.026 232.632 276.357 239.163 276.357 246.839ZM262.551 246.839C262.551 241.867 261.87 237.673 260.507 234.259C259.165 230.844 257.267 228.255 254.814 226.49C252.361 224.726 249.489 223.843 246.197 223.843C242.905 223.843 240.033 224.726 237.58 226.49C235.127 228.255 233.219 230.844 231.856 234.259C230.514 237.673 229.843 241.867 229.843 246.839C229.843 251.812 230.514 256.005 231.856 259.42C233.219 262.834 235.127 265.424 237.58 267.188C240.033 268.953 242.905 269.835 246.197 269.835C249.489 269.835 252.361 268.953 254.814 267.188C257.267 265.424 259.165 262.834 260.507 259.42C261.87 256.005 262.551 251.812 262.551 246.839Z" fill="url(#paint8_linear_17_1293)"/>
<path d="M330.925 234.396C330.484 232.723 329.866 231.245 329.069 229.962C328.272 228.656 327.297 227.556 326.144 226.662C325.012 225.745 323.712 225.047 322.245 224.565C320.798 224.084 319.194 223.843 317.433 223.843C314.141 223.843 311.248 224.737 308.753 226.525C306.279 228.312 304.35 230.913 302.966 234.327C301.582 237.719 300.89 241.867 300.89 246.771C300.89 251.674 301.572 255.845 302.934 259.282C304.297 262.72 306.226 265.344 308.721 267.154C311.216 268.941 314.162 269.835 317.559 269.835C320.641 269.835 323.272 269.239 325.452 268.048C327.654 266.833 329.331 265.126 330.484 262.926C331.658 260.726 332.245 258.125 332.245 255.123L335.013 255.57H318.408V244.364H345.36V253.233C345.36 259.42 344.165 264.736 341.775 269.182C339.385 273.605 336.093 277.019 331.9 279.425C327.706 281.808 322.905 283 317.496 283C311.457 283 306.153 281.545 301.582 278.635C297.011 275.701 293.447 271.542 290.889 266.157C288.352 260.749 287.084 254.333 287.084 246.908C287.084 241.202 287.839 236.115 289.348 231.646C290.879 227.155 293.017 223.351 295.764 220.234C298.51 217.118 301.708 214.746 305.356 213.119C309.004 211.492 312.956 210.678 317.213 210.678C320.861 210.678 324.257 211.263 327.402 212.432C330.547 213.577 333.336 215.204 335.768 217.313C338.221 219.421 340.223 221.93 341.775 224.84C343.326 227.728 344.322 230.913 344.762 234.396H330.925Z" fill="url(#paint9_linear_17_1293)"/>
<path d="M411.233 211.641V282.038H399.471L371.45 237.73H370.978V282.038H357.36V211.641H369.311L397.112 255.914H397.679V211.641H411.233Z" fill="url(#paint10_linear_17_1293)"/>
<path d="M437.873 211.641V282.038H424.256V211.641H437.873Z" fill="url(#paint11_linear_17_1293)"/>
<path d="M448.395 223.912V211.641H501.294V223.912H481.575V282.038H468.114V223.912H448.395Z" fill="url(#paint12_linear_17_1293)"/>
<path d="M525.394 211.641V282.038H511.777V211.641H525.394Z" fill="url(#paint13_linear_17_1293)"/>
<path d="M597.558 246.839C597.558 254.516 596.226 261.047 593.563 266.432C590.922 271.817 587.315 275.931 582.745 278.772C578.195 281.591 573.079 283 567.397 283C561.674 283 556.537 281.579 551.987 278.738C547.437 275.896 543.842 271.783 541.2 266.398C538.558 261.013 537.237 254.493 537.237 246.839C537.237 239.163 538.558 232.632 541.2 227.246C543.842 221.861 547.437 217.759 551.987 214.941C556.537 212.099 561.674 210.678 567.397 210.678C573.079 210.678 578.195 212.099 582.745 214.941C587.315 217.759 590.922 221.861 593.563 227.246C596.226 232.632 597.558 239.163 597.558 246.839ZM583.751 246.839C583.751 241.867 583.07 237.673 581.707 234.259C580.365 230.844 578.468 228.255 576.015 226.49C573.561 224.726 570.689 223.843 567.397 223.843C564.106 223.843 561.233 224.726 558.78 226.49C556.327 228.255 554.419 230.844 553.056 234.259C551.714 237.673 551.044 241.867 551.044 246.839C551.044 251.812 551.714 256.005 553.056 259.42C554.419 262.834 556.327 265.424 558.78 267.188C561.233 268.953 564.106 269.835 567.397 269.835C570.689 269.835 573.561 268.953 576.015 267.188C578.468 265.424 580.365 262.834 581.707 259.42C583.07 256.005 583.751 251.812 583.751 246.839Z" fill="url(#paint14_linear_17_1293)"/>
<path d="M663.289 211.641V282.038H651.527L623.506 237.73H623.034V282.038H609.416V211.641H621.367L649.169 255.914H649.735V211.641H663.289Z" fill="url(#paint15_linear_17_1293)"/>
<defs>
<linearGradient id="paint0_linear_17_1293" x1="348.355" y1="185.242" x2="348.355" y2="309.261" gradientUnits="userSpaceOnUse">
<stop stop-color="#3B71EA"/>
<stop offset="1" stop-color="#1D3E8A" stop-opacity="0.99"/>
</linearGradient>
<linearGradient id="paint1_linear_17_1293" x1="348.355" y1="185.242" x2="348.355" y2="309.261" gradientUnits="userSpaceOnUse">
<stop stop-color="#3B71EA"/>
<stop offset="1" stop-color="#1D3E8A" stop-opacity="0.99"/>
</linearGradient>
<linearGradient id="paint2_linear_17_1293" x1="348.355" y1="185.242" x2="348.355" y2="309.261" gradientUnits="userSpaceOnUse">
<stop stop-color="#3B71EA"/>
<stop offset="1" stop-color="#1D3E8A" stop-opacity="0.99"/>
</linearGradient>
<linearGradient id="paint3_linear_17_1293" x1="348.355" y1="185.242" x2="348.355" y2="309.261" gradientUnits="userSpaceOnUse">
<stop stop-color="#3B71EA"/>
<stop offset="1" stop-color="#1D3E8A" stop-opacity="0.99"/>
</linearGradient>
<linearGradient id="paint4_linear_17_1293" x1="348.355" y1="185.242" x2="348.355" y2="309.261" gradientUnits="userSpaceOnUse">
<stop stop-color="#3B71EA"/>
<stop offset="1" stop-color="#1D3E8A" stop-opacity="0.99"/>
</linearGradient>
<linearGradient id="paint5_linear_17_1293" x1="348.355" y1="185.242" x2="348.355" y2="309.261" gradientUnits="userSpaceOnUse">
<stop stop-color="#3B71EA"/>
<stop offset="1" stop-color="#1D3E8A" stop-opacity="0.99"/>
</linearGradient>
<linearGradient id="paint6_linear_17_1293" x1="348.355" y1="185.242" x2="348.355" y2="309.261" gradientUnits="userSpaceOnUse">
<stop stop-color="#3B71EA"/>
<stop offset="1" stop-color="#1D3E8A" stop-opacity="0.99"/>
</linearGradient>
<linearGradient id="paint7_linear_17_1293" x1="348.355" y1="185.242" x2="348.355" y2="309.261" gradientUnits="userSpaceOnUse">
<stop stop-color="#3B71EA"/>
<stop offset="1" stop-color="#1D3E8A" stop-opacity="0.99"/>
</linearGradient>
<linearGradient id="paint8_linear_17_1293" x1="348.355" y1="185.242" x2="348.355" y2="309.261" gradientUnits="userSpaceOnUse">
<stop stop-color="#3B71EA"/>
<stop offset="1" stop-color="#1D3E8A" stop-opacity="0.99"/>
</linearGradient>
<linearGradient id="paint9_linear_17_1293" x1="348.355" y1="185.242" x2="348.355" y2="309.261" gradientUnits="userSpaceOnUse">
<stop stop-color="#3B71EA"/>
<stop offset="1" stop-color="#1D3E8A" stop-opacity="0.99"/>
</linearGradient>
<linearGradient id="paint10_linear_17_1293" x1="348.355" y1="185.242" x2="348.355" y2="309.261" gradientUnits="userSpaceOnUse">
<stop stop-color="#3B71EA"/>
<stop offset="1" stop-color="#1D3E8A" stop-opacity="0.99"/>
</linearGradient>
<linearGradient id="paint11_linear_17_1293" x1="348.355" y1="185.242" x2="348.355" y2="309.261" gradientUnits="userSpaceOnUse">
<stop stop-color="#3B71EA"/>
<stop offset="1" stop-color="#1D3E8A" stop-opacity="0.99"/>
</linearGradient>
<linearGradient id="paint12_linear_17_1293" x1="348.355" y1="185.242" x2="348.355" y2="309.261" gradientUnits="userSpaceOnUse">
<stop stop-color="#3B71EA"/>
<stop offset="1" stop-color="#1D3E8A" stop-opacity="0.99"/>
</linearGradient>
<linearGradient id="paint13_linear_17_1293" x1="348.355" y1="185.242" x2="348.355" y2="309.261" gradientUnits="userSpaceOnUse">
<stop stop-color="#3B71EA"/>
<stop offset="1" stop-color="#1D3E8A" stop-opacity="0.99"/>
</linearGradient>
<linearGradient id="paint14_linear_17_1293" x1="348.355" y1="185.242" x2="348.355" y2="309.261" gradientUnits="userSpaceOnUse">
<stop stop-color="#3B71EA"/>
<stop offset="1" stop-color="#1D3E8A" stop-opacity="0.99"/>
</linearGradient>
<linearGradient id="paint15_linear_17_1293" x1="348.355" y1="185.242" x2="348.355" y2="309.261" gradientUnits="userSpaceOnUse">
<stop stop-color="#3B71EA"/>
<stop offset="1" stop-color="#1D3E8A" stop-opacity="0.99"/>
</linearGradient>
</defs>
</svg>
