<svg width="792" height="191" viewBox="0 0 792 191" fill="none" xmlns="http://www.w3.org/2000/svg">
<path d="M0 115.585V0H45.5601C54.2811 0 61.7241 1.56145 67.889 4.68436C74.0915 7.76964 78.8091 12.153 82.0419 17.8344C85.3123 23.4782 86.9475 30.1191 86.9475 37.757C86.9475 45.4326 85.2935 52.0359 81.9855 57.5668C78.6776 63.0601 73.8847 67.2741 67.6071 70.2089C61.367 73.1437 53.8112 74.6111 44.9398 74.6111H14.4349V54.9706H40.9928C45.654 54.9706 49.5259 54.331 52.6083 53.0518C55.6908 51.7725 57.9838 49.8536 59.4874 47.2951C61.0287 44.7366 61.7993 41.5572 61.7993 37.757C61.7993 33.9193 61.0287 30.6835 59.4874 28.0497C57.9838 25.4159 55.672 23.4218 52.5519 22.0673C49.4695 20.6751 45.5788 19.9791 40.88 19.9791H24.4152V115.585H0ZM62.3631 62.9849L91.0637 115.585H64.1111L36.0308 62.9849H62.3631Z" fill="url(#paint0_linear_17_1782)"/>
<path d="M107.377 115.585V0H185.19V20.1484H131.793V47.6901H181.187V67.8385H131.793V95.4367H185.416V115.585H107.377Z" fill="url(#paint1_linear_17_1782)"/>
<path d="M227.681 115.585H201.518L241.383 0H272.847L312.655 115.585H286.492L257.566 26.413H256.664L227.681 115.585ZM226.046 70.1525H287.845V89.2285H226.046V70.1525Z" fill="url(#paint2_linear_17_1782)"/>
<path d="M329.73 115.585V0H354.145V95.4367H403.652V115.585H329.73Z" fill="url(#paint3_linear_17_1782)"/>
<path d="M404.178 20.1484V0H499.02V20.1484H463.665V115.585H439.532V20.1484H404.178Z" fill="url(#paint4_linear_17_1782)"/>
<path d="M542.229 0V115.585H517.814V0H542.229Z" fill="url(#paint5_linear_17_1782)"/>
<path d="M565.493 0H595.603L627.405 77.6587H628.758L660.56 0H690.67V115.585H666.988V40.3532H666.029L636.145 115.021H620.018L590.133 40.071H589.175V115.585H565.493V0Z" fill="url(#paint6_linear_17_1782)"/>
<path d="M713.961 115.585V0H791.774V20.1484H738.377V47.6901H787.771V67.8385H738.377V95.4367H792V115.585H713.961Z" fill="url(#paint7_linear_17_1782)"/>
<path d="M80.8373 190.234V134.193H117.909V143.961H92.675V157.315H115.448V167.084H92.675V190.234H80.8373Z" fill="url(#paint8_linear_17_1782)"/>
<path d="M130.07 190.234H117.384L136.713 134.193H151.968L171.269 190.234H158.584L144.559 146.999H144.122L130.07 190.234ZM129.277 168.206H159.24V177.455H129.277V168.206Z" fill="url(#paint9_linear_17_1782)"/>
<path d="M226.318 153.812H214.343C214.124 152.262 213.678 150.885 213.004 149.681C212.329 148.458 211.463 147.418 210.406 146.561C209.349 145.704 208.128 145.047 206.743 144.591C205.376 144.135 203.891 143.907 202.287 143.907C199.389 143.907 196.865 144.627 194.714 146.068C192.563 147.491 190.896 149.571 189.711 152.307C188.526 155.026 187.934 158.328 187.934 162.213C187.934 166.208 188.526 169.565 189.711 172.283C190.914 175.001 192.591 177.054 194.741 178.44C196.892 179.826 199.38 180.52 202.205 180.52C203.79 180.52 205.258 180.31 206.606 179.89C207.973 179.471 209.185 178.86 210.242 178.057C211.299 177.236 212.174 176.242 212.867 175.074C213.578 173.907 214.07 172.575 214.343 171.079L226.318 171.134C226.008 173.706 225.233 176.187 223.994 178.577C222.773 180.948 221.123 183.074 219.045 184.953C216.986 186.813 214.525 188.291 211.664 189.386C208.821 190.462 205.604 191 202.013 191C197.019 191 192.554 189.869 188.617 187.607C184.699 185.345 181.6 182.07 179.322 177.783C177.062 173.496 175.932 168.306 175.932 162.213C175.932 156.102 177.08 150.903 179.377 146.616C181.673 142.329 184.79 139.063 188.727 136.819C192.664 134.557 197.092 133.426 202.013 133.426C205.258 133.426 208.265 133.882 211.035 134.795C213.824 135.707 216.293 137.038 218.444 138.79C220.595 140.523 222.344 142.648 223.693 145.165C225.06 147.683 225.935 150.565 226.318 153.812Z" fill="url(#paint10_linear_17_1782)"/>
<path d="M236.346 190.234V134.193H274.073V143.961H248.184V157.315H272.132V167.084H248.184V180.465H274.183V190.234H236.346Z" fill="url(#paint11_linear_17_1782)"/>
<path d="M302.25 143.961V134.193H348.234V143.961H331.092V190.234H319.391V143.961H302.25Z" fill="url(#paint12_linear_17_1782)"/>
<path d="M357.346 190.234V134.193H379.436C383.664 134.193 387.273 134.95 390.262 136.464C393.269 137.96 395.557 140.085 397.124 142.84C398.71 145.576 399.503 148.796 399.503 152.499C399.503 156.22 398.701 159.422 397.097 162.104C395.493 164.767 393.169 166.81 390.125 168.233C387.1 169.656 383.436 170.368 379.135 170.368H364.345V160.845H377.221C379.482 160.845 381.359 160.535 382.853 159.915C384.348 159.294 385.46 158.364 386.189 157.123C386.936 155.883 387.31 154.342 387.31 152.499C387.31 150.638 386.936 149.069 386.189 147.792C385.46 146.515 384.339 145.549 382.826 144.892C381.331 144.217 379.445 143.879 377.167 143.879H369.184V190.234H357.346ZM387.583 164.731L401.498 190.234H388.43L374.816 164.731H387.583Z" fill="url(#paint13_linear_17_1782)"/>
<path d="M419.059 190.234H406.373L425.702 134.193H440.957L460.258 190.234H447.573L433.548 146.999H433.111L419.059 190.234ZM418.266 168.206H448.229V177.455H418.266V168.206Z" fill="url(#paint14_linear_17_1782)"/>
<path d="M515.307 153.812H503.332C503.113 152.262 502.667 150.885 501.993 149.681C501.318 148.458 500.453 147.418 499.395 146.561C498.338 145.704 497.117 145.047 495.732 144.591C494.365 144.135 492.88 143.907 491.276 143.907C488.378 143.907 485.854 144.627 483.703 146.068C481.552 147.491 479.885 149.571 478.7 152.307C477.515 155.026 476.923 158.328 476.923 162.213C476.923 166.208 477.515 169.565 478.7 172.283C479.903 175.001 481.58 177.054 483.73 178.44C485.881 179.826 488.369 180.52 491.194 180.52C492.779 180.52 494.247 180.31 495.595 179.89C496.962 179.471 498.174 178.86 499.231 178.057C500.288 177.236 501.163 176.242 501.856 175.074C502.567 173.907 503.059 172.575 503.332 171.079L515.307 171.134C514.997 173.706 514.222 176.187 512.983 178.577C511.762 180.948 510.112 183.074 508.034 184.953C505.975 186.813 503.514 188.291 500.653 189.386C497.81 190.462 494.593 191 491.002 191C486.009 191 481.543 189.869 477.606 187.607C473.688 185.345 470.589 182.07 468.311 177.783C466.051 173.496 464.921 168.306 464.921 162.213C464.921 156.102 466.069 150.903 468.366 146.616C470.662 142.329 473.779 139.063 477.716 136.819C481.653 134.557 486.081 133.426 491.002 133.426C494.247 133.426 497.254 133.882 500.024 134.795C502.813 135.707 505.282 137.038 507.433 138.79C509.584 140.523 511.333 142.648 512.682 145.165C514.049 147.683 514.924 150.565 515.307 153.812Z" fill="url(#paint15_linear_17_1782)"/>
<path d="M525.335 190.234V134.193H537.173V158.902H537.911L558.06 134.193H572.248L551.471 159.285L572.494 190.234H558.333L542.996 167.193L537.173 174.308V190.234H525.335Z" fill="url(#paint16_linear_17_1782)"/>
<path d="M591.791 134.193V190.234H579.953V134.193H591.791Z" fill="url(#paint17_linear_17_1782)"/>
<path d="M649.901 134.193V190.234H639.676L615.318 154.962H614.907V190.234H603.07V134.193H613.458L637.626 169.437H638.118V134.193H649.901Z" fill="url(#paint18_linear_17_1782)"/>
<path d="M698.347 152.307C697.965 150.976 697.427 149.799 696.734 148.778C696.042 147.738 695.194 146.862 694.192 146.151C693.208 145.421 692.078 144.864 690.802 144.481C689.544 144.098 688.15 143.907 686.619 143.907C683.758 143.907 681.242 144.618 679.073 146.041C676.923 147.464 675.246 149.535 674.043 152.253C672.84 154.953 672.239 158.255 672.239 162.158C672.239 166.062 672.831 169.383 674.016 172.119C675.2 174.855 676.877 176.944 679.046 178.385C681.215 179.808 683.776 180.52 686.728 180.52C689.407 180.52 691.695 180.045 693.59 179.097C695.504 178.13 696.962 176.771 697.965 175.019C698.985 173.268 699.495 171.198 699.495 168.808L701.901 169.164H687.466V160.243H710.896V167.303C710.896 172.228 709.857 176.461 707.779 180C705.701 183.521 702.84 186.239 699.195 188.154C695.55 190.051 691.376 191 686.674 191C681.425 191 676.813 189.842 672.84 187.525C668.867 185.19 665.769 181.879 663.545 177.592C661.34 173.286 660.237 168.179 660.237 162.268C660.237 157.726 660.893 153.676 662.205 150.118C663.536 146.543 665.395 143.515 667.783 141.034C670.17 138.553 672.95 136.664 676.121 135.369C679.292 134.074 682.728 133.426 686.428 133.426C689.599 133.426 692.551 133.892 695.285 134.822C698.019 135.734 700.443 137.029 702.557 138.708C704.69 140.386 706.43 142.383 707.779 144.7C709.128 146.999 709.994 149.535 710.376 152.307H698.347Z" fill="url(#paint19_linear_17_1782)"/>
<defs>
<linearGradient id="paint0_linear_17_1782" x1="395.944" y1="113.177" x2="395.944" y2="211.906" gradientUnits="userSpaceOnUse">
<stop stop-color="#3B71EA"/>
<stop offset="1" stop-color="#1D3E8A" stop-opacity="0.99"/>
</linearGradient>
<linearGradient id="paint1_linear_17_1782" x1="395.944" y1="113.177" x2="395.944" y2="211.906" gradientUnits="userSpaceOnUse">
<stop stop-color="#3B71EA"/>
<stop offset="1" stop-color="#1D3E8A" stop-opacity="0.99"/>
</linearGradient>
<linearGradient id="paint2_linear_17_1782" x1="395.944" y1="113.177" x2="395.944" y2="211.906" gradientUnits="userSpaceOnUse">
<stop stop-color="#3B71EA"/>
<stop offset="1" stop-color="#1D3E8A" stop-opacity="0.99"/>
</linearGradient>
<linearGradient id="paint3_linear_17_1782" x1="395.944" y1="113.177" x2="395.944" y2="211.906" gradientUnits="userSpaceOnUse">
<stop stop-color="#3B71EA"/>
<stop offset="1" stop-color="#1D3E8A" stop-opacity="0.99"/>
</linearGradient>
<linearGradient id="paint4_linear_17_1782" x1="395.944" y1="113.177" x2="395.944" y2="211.906" gradientUnits="userSpaceOnUse">
<stop stop-color="#3B71EA"/>
<stop offset="1" stop-color="#1D3E8A" stop-opacity="0.99"/>
</linearGradient>
<linearGradient id="paint5_linear_17_1782" x1="395.944" y1="113.177" x2="395.944" y2="211.906" gradientUnits="userSpaceOnUse">
<stop stop-color="#3B71EA"/>
<stop offset="1" stop-color="#1D3E8A" stop-opacity="0.99"/>
</linearGradient>
<linearGradient id="paint6_linear_17_1782" x1="395.944" y1="113.177" x2="395.944" y2="211.906" gradientUnits="userSpaceOnUse">
<stop stop-color="#3B71EA"/>
<stop offset="1" stop-color="#1D3E8A" stop-opacity="0.99"/>
</linearGradient>
<linearGradient id="paint7_linear_17_1782" x1="395.944" y1="113.177" x2="395.944" y2="211.906" gradientUnits="userSpaceOnUse">
<stop stop-color="#3B71EA"/>
<stop offset="1" stop-color="#1D3E8A" stop-opacity="0.99"/>
</linearGradient>
<linearGradient id="paint8_linear_17_1782" x1="395.944" y1="113.177" x2="395.944" y2="211.906" gradientUnits="userSpaceOnUse">
<stop stop-color="#3B71EA"/>
<stop offset="1" stop-color="#1D3E8A" stop-opacity="0.99"/>
</linearGradient>
<linearGradient id="paint9_linear_17_1782" x1="395.944" y1="113.177" x2="395.944" y2="211.906" gradientUnits="userSpaceOnUse">
<stop stop-color="#3B71EA"/>
<stop offset="1" stop-color="#1D3E8A" stop-opacity="0.99"/>
</linearGradient>
<linearGradient id="paint10_linear_17_1782" x1="395.944" y1="113.177" x2="395.944" y2="211.906" gradientUnits="userSpaceOnUse">
<stop stop-color="#3B71EA"/>
<stop offset="1" stop-color="#1D3E8A" stop-opacity="0.99"/>
</linearGradient>
<linearGradient id="paint11_linear_17_1782" x1="395.944" y1="113.177" x2="395.944" y2="211.906" gradientUnits="userSpaceOnUse">
<stop stop-color="#3B71EA"/>
<stop offset="1" stop-color="#1D3E8A" stop-opacity="0.99"/>
</linearGradient>
<linearGradient id="paint12_linear_17_1782" x1="395.944" y1="113.177" x2="395.944" y2="211.906" gradientUnits="userSpaceOnUse">
<stop stop-color="#3B71EA"/>
<stop offset="1" stop-color="#1D3E8A" stop-opacity="0.99"/>
</linearGradient>
<linearGradient id="paint13_linear_17_1782" x1="395.944" y1="113.177" x2="395.944" y2="211.906" gradientUnits="userSpaceOnUse">
<stop stop-color="#3B71EA"/>
<stop offset="1" stop-color="#1D3E8A" stop-opacity="0.99"/>
</linearGradient>
<linearGradient id="paint14_linear_17_1782" x1="395.944" y1="113.177" x2="395.944" y2="211.906" gradientUnits="userSpaceOnUse">
<stop stop-color="#3B71EA"/>
<stop offset="1" stop-color="#1D3E8A" stop-opacity="0.99"/>
</linearGradient>
<linearGradient id="paint15_linear_17_1782" x1="395.944" y1="113.177" x2="395.944" y2="211.906" gradientUnits="userSpaceOnUse">
<stop stop-color="#3B71EA"/>
<stop offset="1" stop-color="#1D3E8A" stop-opacity="0.99"/>
</linearGradient>
<linearGradient id="paint16_linear_17_1782" x1="395.944" y1="113.177" x2="395.944" y2="211.906" gradientUnits="userSpaceOnUse">
<stop stop-color="#3B71EA"/>
<stop offset="1" stop-color="#1D3E8A" stop-opacity="0.99"/>
</linearGradient>
<linearGradient id="paint17_linear_17_1782" x1="395.944" y1="113.177" x2="395.944" y2="211.906" gradientUnits="userSpaceOnUse">
<stop stop-color="#3B71EA"/>
<stop offset="1" stop-color="#1D3E8A" stop-opacity="0.99"/>
</linearGradient>
<linearGradient id="paint18_linear_17_1782" x1="395.944" y1="113.177" x2="395.944" y2="211.906" gradientUnits="userSpaceOnUse">
<stop stop-color="#3B71EA"/>
<stop offset="1" stop-color="#1D3E8A" stop-opacity="0.99"/>
</linearGradient>
<linearGradient id="paint19_linear_17_1782" x1="395.944" y1="113.177" x2="395.944" y2="211.906" gradientUnits="userSpaceOnUse">
<stop stop-color="#3B71EA"/>
<stop offset="1" stop-color="#1D3E8A" stop-opacity="0.99"/>
</linearGradient>
</defs>
</svg>
