<svg width="612" height="251" viewBox="0 0 612 251" fill="none" xmlns="http://www.w3.org/2000/svg">
<path d="M40.2252 156.248V2.10739H142.438V28.9766H72.8639V65.7053H135.654V92.5745H72.8639V156.248H40.2252Z" fill="url(#paint0_linear_17_992)"/>
<path d="M175.968 156.248H140.992L194.284 2.10739H236.345L289.562 156.248H254.587L215.918 37.3308H214.712L175.968 156.248ZM173.782 95.6603H256.396V121.099H173.782V95.6603Z" fill="url(#paint1_linear_17_992)"/>
<path d="M441.342 56.0715H408.326C407.723 51.8066 406.492 48.0183 404.632 44.7067C402.773 41.3449 400.386 38.4849 397.471 36.1266C394.557 33.7684 391.19 31.962 387.371 30.7076C383.602 29.4532 379.506 28.826 375.084 28.826C367.094 28.826 360.134 30.808 354.204 34.7719C348.275 38.6856 343.677 44.4056 340.41 51.932C337.144 59.4082 335.511 68.4901 335.511 79.1775C335.511 90.166 337.144 99.3984 340.41 106.875C343.727 114.351 348.35 119.996 354.28 123.809C360.21 127.622 367.069 129.529 374.858 129.529C379.23 129.529 383.275 128.952 386.994 127.798C390.763 126.644 394.105 124.963 397.019 122.755C399.934 120.497 402.346 117.763 404.255 114.551C406.215 111.34 407.572 107.677 408.326 103.563L441.342 103.714C440.487 110.788 438.352 117.612 434.934 124.185C431.567 130.708 427.02 136.554 421.291 141.722C415.612 146.84 408.828 150.904 400.939 153.914C393.1 156.875 384.23 158.355 374.33 158.355C360.561 158.355 348.25 155.244 337.395 149.022C326.591 142.801 318.048 133.794 311.767 122.003C305.535 110.211 302.42 95.9363 302.42 79.1775C302.42 62.3686 305.586 48.0685 311.917 36.2772C318.249 24.4858 326.842 15.5043 337.697 9.33272C348.551 3.11091 360.762 0 374.33 0C383.275 0 391.567 1.2544 399.205 3.76319C406.894 6.27198 413.703 9.93482 419.633 14.7517C425.562 19.5184 430.387 25.3639 434.105 32.2882C437.874 39.2124 440.286 47.1402 441.342 56.0715Z" fill="url(#paint2_linear_17_992)"/>
<path d="M468.992 156.248V2.10739H573.013V28.9766H501.63V65.7053H567.662V92.5745H501.63V129.378H573.315V156.248H468.992Z" fill="url(#paint3_linear_17_992)"/>
<path d="M0 250.146V187.71H24.6706C29.393 187.71 33.4234 188.553 36.7616 190.24C40.1202 191.907 42.6748 194.275 44.4254 197.344C46.1963 200.392 47.0817 203.979 47.0817 208.105C47.0817 212.252 46.1861 215.818 44.3948 218.806C42.6036 221.774 40.0083 224.05 36.609 225.635C33.23 227.22 29.1386 228.013 24.3347 228.013H7.81642V217.404H22.1974C24.7215 217.404 26.8181 217.058 28.4872 216.367C30.1563 215.676 31.398 214.64 32.2122 213.258C33.0468 211.876 33.4641 210.158 33.4641 208.105C33.4641 206.032 33.0468 204.284 32.2122 202.862C31.398 201.439 30.1462 200.362 28.4567 199.63C26.7875 198.878 24.6808 198.502 22.1364 198.502H13.2207V250.146H0ZM33.7694 221.733L49.3106 250.146H34.7159L19.5105 221.733H33.7694Z" fill="url(#paint4_linear_17_992)"/>
<path d="M58.1444 250.146V187.71H100.28V198.594H71.3652V213.471H98.112V224.355H71.3652V239.263H100.402V250.146H58.1444Z" fill="url(#paint5_linear_17_992)"/>
<path d="M167.683 209.569H154.31C154.066 207.841 153.567 206.307 152.814 204.965C152.061 203.603 151.094 202.445 149.913 201.49C148.733 200.535 147.369 199.803 145.822 199.295C144.295 198.787 142.636 198.533 140.845 198.533C137.608 198.533 134.789 199.335 132.387 200.941C129.985 202.526 128.123 204.843 126.8 207.892C125.477 210.92 124.815 214.599 124.815 218.928C124.815 223.379 125.477 227.119 126.8 230.147C128.143 233.175 130.016 235.462 132.418 237.007C134.82 238.551 137.598 239.324 140.753 239.324C142.524 239.324 144.163 239.09 145.669 238.622C147.196 238.155 148.549 237.474 149.73 236.58C150.911 235.665 151.888 234.558 152.661 233.257C153.455 231.956 154.005 230.472 154.31 228.806L167.683 228.867C167.337 231.732 166.472 234.497 165.088 237.159C163.724 239.801 161.882 242.169 159.562 244.262C157.261 246.336 154.513 247.982 151.318 249.201C148.142 250.4 144.55 251 140.54 251C134.962 251 129.975 249.74 125.578 247.22C121.202 244.699 117.742 241.051 115.197 236.275C112.673 231.499 111.411 225.716 111.411 218.928C111.411 212.119 112.694 206.327 115.258 201.551C117.823 196.775 121.304 193.136 125.701 190.637C130.097 188.116 135.044 186.856 140.54 186.856C144.163 186.856 147.521 187.364 150.615 188.381C153.73 189.397 156.488 190.88 158.89 192.832C161.292 194.762 163.246 197.13 164.752 199.935C166.279 202.74 167.256 205.951 167.683 209.569Z" fill="url(#paint6_linear_17_992)"/>
<path d="M236.346 218.928C236.346 225.737 235.054 231.529 232.469 236.305C229.904 241.082 226.403 244.73 221.965 247.25C217.548 249.75 212.582 251 207.065 251C201.508 251 196.521 249.74 192.104 247.22C187.687 244.699 184.196 241.051 181.631 236.275C179.067 231.499 177.784 225.716 177.784 218.928C177.784 212.119 179.067 206.327 181.631 201.551C184.196 196.775 187.687 193.136 192.104 190.637C196.521 188.116 201.508 186.856 207.065 186.856C212.582 186.856 217.548 188.116 221.965 190.637C226.403 193.136 229.904 196.775 232.469 201.551C235.054 206.327 236.346 212.119 236.346 218.928ZM222.942 218.928C222.942 214.518 222.281 210.798 220.958 207.77C219.655 204.742 217.813 202.445 215.431 200.88C213.05 199.315 210.261 198.533 207.065 198.533C203.87 198.533 201.081 199.315 198.699 200.88C196.318 202.445 194.465 204.742 193.142 207.77C191.84 210.798 191.188 214.518 191.188 218.928C191.188 223.338 191.84 227.058 193.142 230.086C194.465 233.115 196.318 235.411 198.699 236.976C201.081 238.541 203.87 239.324 207.065 239.324C210.261 239.324 213.05 238.541 215.431 236.976C217.813 235.411 219.655 233.115 220.958 230.086C222.281 227.058 222.942 223.338 222.942 218.928Z" fill="url(#paint7_linear_17_992)"/>
<path d="M289.323 207.892C288.896 206.408 288.295 205.097 287.522 203.959C286.748 202.801 285.802 201.825 284.682 201.032C283.583 200.219 282.321 199.6 280.896 199.173C279.491 198.746 277.934 198.533 276.224 198.533C273.029 198.533 270.22 199.325 267.797 200.911C265.395 202.496 263.523 204.803 262.179 207.831C260.836 210.839 260.164 214.518 260.164 218.867C260.164 223.217 260.826 226.916 262.149 229.964C263.472 233.013 265.345 235.34 267.767 236.946C270.189 238.531 273.049 239.324 276.347 239.324C279.339 239.324 281.893 238.795 284.01 237.738C286.148 236.661 287.776 235.147 288.896 233.196C290.036 231.245 290.605 228.938 290.605 226.275L293.292 226.672H277.171V216.733H303.338V224.599C303.338 230.086 302.177 234.801 299.857 238.744C297.536 242.667 294.341 245.695 290.27 247.829C286.199 249.943 281.537 251 276.286 251C270.423 251 265.273 249.709 260.836 247.128C256.398 244.527 252.938 240.838 250.455 236.062C247.992 231.265 246.76 225.574 246.76 218.989C246.76 213.928 247.493 209.416 248.959 205.453C250.445 201.469 252.521 198.096 255.187 195.331C257.854 192.567 260.958 190.464 264.5 189.021C268.042 187.578 271.879 186.856 276.011 186.856C279.553 186.856 282.85 187.374 285.903 188.411C288.957 189.427 291.664 190.87 294.025 192.74C296.407 194.61 298.351 196.835 299.857 199.417C301.363 201.978 302.33 204.803 302.758 207.892H289.323Z" fill="url(#paint8_linear_17_992)"/>
<path d="M367.291 187.71V250.146H355.872L328.667 210.849H328.209V250.146H314.988V187.71H326.591L353.582 226.977H354.131V187.71H367.291Z" fill="url(#paint9_linear_17_992)"/>
<path d="M393.154 187.71V250.146H379.934V187.71H393.154Z" fill="url(#paint10_linear_17_992)"/>
<path d="M403.37 198.594V187.71H454.726V198.594H435.582V250.146H422.514V198.594H403.37Z" fill="url(#paint11_linear_17_992)"/>
<path d="M478.124 187.71V250.146H464.903V187.71H478.124Z" fill="url(#paint12_linear_17_992)"/>
<path d="M548.184 218.928C548.184 225.737 546.892 231.529 544.306 236.305C541.742 241.082 538.241 244.73 533.803 247.25C529.386 249.75 524.419 251 518.903 251C513.346 251 508.359 249.74 503.942 247.22C499.525 244.699 496.034 241.051 493.469 236.275C490.904 231.499 489.622 225.716 489.622 218.928C489.622 212.119 490.904 206.327 493.469 201.551C496.034 196.775 499.525 193.136 503.942 190.637C508.359 188.116 513.346 186.856 518.903 186.856C524.419 186.856 529.386 188.116 533.803 190.637C538.241 193.136 541.742 196.775 544.306 201.551C546.892 206.327 548.184 212.119 548.184 218.928ZM534.78 218.928C534.78 214.518 534.119 210.798 532.795 207.77C531.493 204.742 529.651 202.445 527.269 200.88C524.888 199.315 522.099 198.533 518.903 198.533C515.707 198.533 512.919 199.315 510.537 200.88C508.155 202.445 506.303 204.742 504.98 207.77C503.677 210.798 503.026 214.518 503.026 218.928C503.026 223.338 503.677 227.058 504.98 230.086C506.303 233.115 508.155 235.411 510.537 236.976C512.919 238.541 515.707 239.324 518.903 239.324C522.099 239.324 524.888 238.541 527.269 236.976C529.651 235.411 531.493 233.115 532.795 230.086C534.119 227.058 534.78 223.338 534.78 218.928Z" fill="url(#paint13_linear_17_992)"/>
<path d="M612 187.71V250.146H600.581L573.376 210.849H572.918V250.146H559.697V187.71H571.3L598.291 226.977H598.84V187.71H612Z" fill="url(#paint14_linear_17_992)"/>
<defs>
<linearGradient id="paint0_linear_17_992" x1="306.245" y1="164.296" x2="306.245" y2="274.292" gradientUnits="userSpaceOnUse">
<stop stop-color="#3B71EA"/>
<stop offset="1" stop-color="#1D3E8A" stop-opacity="0.99"/>
</linearGradient>
<linearGradient id="paint1_linear_17_992" x1="306.245" y1="164.296" x2="306.245" y2="274.292" gradientUnits="userSpaceOnUse">
<stop stop-color="#3B71EA"/>
<stop offset="1" stop-color="#1D3E8A" stop-opacity="0.99"/>
</linearGradient>
<linearGradient id="paint2_linear_17_992" x1="306.245" y1="164.296" x2="306.245" y2="274.292" gradientUnits="userSpaceOnUse">
<stop stop-color="#3B71EA"/>
<stop offset="1" stop-color="#1D3E8A" stop-opacity="0.99"/>
</linearGradient>
<linearGradient id="paint3_linear_17_992" x1="306.245" y1="164.296" x2="306.245" y2="274.292" gradientUnits="userSpaceOnUse">
<stop stop-color="#3B71EA"/>
<stop offset="1" stop-color="#1D3E8A" stop-opacity="0.99"/>
</linearGradient>
<linearGradient id="paint4_linear_17_992" x1="306.245" y1="164.296" x2="306.245" y2="274.292" gradientUnits="userSpaceOnUse">
<stop stop-color="#3B71EA"/>
<stop offset="1" stop-color="#1D3E8A" stop-opacity="0.99"/>
</linearGradient>
<linearGradient id="paint5_linear_17_992" x1="306.245" y1="164.296" x2="306.245" y2="274.292" gradientUnits="userSpaceOnUse">
<stop stop-color="#3B71EA"/>
<stop offset="1" stop-color="#1D3E8A" stop-opacity="0.99"/>
</linearGradient>
<linearGradient id="paint6_linear_17_992" x1="306.245" y1="164.296" x2="306.245" y2="274.292" gradientUnits="userSpaceOnUse">
<stop stop-color="#3B71EA"/>
<stop offset="1" stop-color="#1D3E8A" stop-opacity="0.99"/>
</linearGradient>
<linearGradient id="paint7_linear_17_992" x1="306.245" y1="164.296" x2="306.245" y2="274.292" gradientUnits="userSpaceOnUse">
<stop stop-color="#3B71EA"/>
<stop offset="1" stop-color="#1D3E8A" stop-opacity="0.99"/>
</linearGradient>
<linearGradient id="paint8_linear_17_992" x1="306.245" y1="164.296" x2="306.245" y2="274.292" gradientUnits="userSpaceOnUse">
<stop stop-color="#3B71EA"/>
<stop offset="1" stop-color="#1D3E8A" stop-opacity="0.99"/>
</linearGradient>
<linearGradient id="paint9_linear_17_992" x1="306.245" y1="164.296" x2="306.245" y2="274.292" gradientUnits="userSpaceOnUse">
<stop stop-color="#3B71EA"/>
<stop offset="1" stop-color="#1D3E8A" stop-opacity="0.99"/>
</linearGradient>
<linearGradient id="paint10_linear_17_992" x1="306.245" y1="164.296" x2="306.245" y2="274.292" gradientUnits="userSpaceOnUse">
<stop stop-color="#3B71EA"/>
<stop offset="1" stop-color="#1D3E8A" stop-opacity="0.99"/>
</linearGradient>
<linearGradient id="paint11_linear_17_992" x1="306.245" y1="164.296" x2="306.245" y2="274.292" gradientUnits="userSpaceOnUse">
<stop stop-color="#3B71EA"/>
<stop offset="1" stop-color="#1D3E8A" stop-opacity="0.99"/>
</linearGradient>
<linearGradient id="paint12_linear_17_992" x1="306.245" y1="164.296" x2="306.245" y2="274.292" gradientUnits="userSpaceOnUse">
<stop stop-color="#3B71EA"/>
<stop offset="1" stop-color="#1D3E8A" stop-opacity="0.99"/>
</linearGradient>
<linearGradient id="paint13_linear_17_992" x1="306.245" y1="164.296" x2="306.245" y2="274.292" gradientUnits="userSpaceOnUse">
<stop stop-color="#3B71EA"/>
<stop offset="1" stop-color="#1D3E8A" stop-opacity="0.99"/>
</linearGradient>
<linearGradient id="paint14_linear_17_992" x1="306.245" y1="164.296" x2="306.245" y2="274.292" gradientUnits="userSpaceOnUse">
<stop stop-color="#3B71EA"/>
<stop offset="1" stop-color="#1D3E8A" stop-opacity="0.99"/>
</linearGradient>
</defs>
</svg>
